<svg id="Capa_1" enable-background="new 0 0 512 512" height="512" viewBox="0 0 512 512" width="512" xmlns="http://www.w3.org/2000/svg"><g><g><path d="m512 185.433c0-102.248-83.185-185.433-185.433-185.433-51.124 0-97.482 20.796-131.059 54.373l-.061-.061-126.75 126.75c-14.483 14.483-14.483 37.965 0 52.448 14.483 14.483 37.965 14.483 52.448 0l-78.738 78.738c-14.483 14.483-14.483 37.965 0 52.448 14.483 14.483 37.964 14.483 52.447.001l-83.992 83.992c-14.483 14.483-14.483 37.965 0 52.448 14.483 14.483 37.965 14.483 52.448 0l83.993-83.993c-14.483 14.483-14.483 37.965 0 52.448 14.483 14.483 37.965 14.483 52.448 0l78.736-78.736c-14.482 14.483-14.482 37.964.001 52.447 14.483 14.483 37.965 14.483 52.448 0l126.75-126.75-.061-.061c33.579-33.577 54.375-79.935 54.375-131.059z" fill="#ff8e9e"/></g><g><g><path d="m147.304 417.144 51.149-51.149c-14.483 14.483-37.965 14.483-52.448 0-14.483-14.483-14.483-37.965 0-52.448l69.423-69.423c-14.483 14.482-37.964 14.482-52.447-.001-14.483-14.483-14.483-37.965 0-52.448l78.738-78.738c-14.483 14.483-37.965 14.483-52.448 0-14.483-14.483-14.483-37.965 0-52.448l-120.574 120.573c-14.483 14.483-14.483 37.965 0 52.448 14.483 14.483 37.965 14.483 52.448 0l-78.738 78.738c-14.483 14.483-14.483 37.965 0 52.448 14.483 14.483 37.964 14.483 52.447.001l-83.992 83.992c-14.483 14.483-14.483 37.965 0 52.448 14.483 14.483 37.965 14.483 52.448 0z" fill="#ea5b70"/></g></g><g><path d="m423.972 79.075c-15.293-14.013-33.617-24.77-53.876-31.176h-87.057c-20.259 6.406-38.583 17.162-53.876 31.176l-43.447 75.253c-2.203 10.019-3.374 20.424-3.374 31.105s1.171 21.086 3.374 31.105l43.447 75.253c15.293 14.013 33.617 24.77 53.876 31.176h87.057c20.259-6.406 38.583-17.163 53.876-31.176l43.447-75.253c2.203-10.019 3.374-20.424 3.374-31.105s-1.171-21.086-3.374-31.105z" fill="#efedee"/></g><g><path d="m229.152 79.093-43.447 75.253c-2.2 10.012-3.363 20.413-3.363 31.087 0 10.681 1.171 21.086 3.374 31.105l43.447 75.253c15.293 14.013 33.617 24.77 53.876 31.176h87.057v.004c20.263-6.409 38.588-17.173 53.883-31.192l13.297-23.032c-19.659 10.045-41.923 15.719-65.516 15.719-79.653 0-144.225-64.572-144.225-144.225 0-28.255 8.132-54.608 22.174-76.859-7.325 4.621-14.201 9.887-20.557 15.711z" fill="#d4d4d5"/></g><g><path d="m288.842 156.951 31.921-18.43c3.591-2.074 8.016-2.074 11.608 0l31.921 18.43c3.591 2.074 5.804 5.906 5.804 10.053v36.859c0 4.147-2.212 7.979-5.804 10.053l-31.921 18.43c-3.591 2.074-8.016 2.074-11.608 0l-31.921-18.43c-3.591-2.074-5.804-5.906-5.804-10.053v-36.859c0-4.148 2.213-7.98 5.804-10.053z" fill="#676f72"/></g><g><path d="m326.567 41.207c-15.172 0-29.793 2.349-43.529 6.692v11.738c0 4.147 2.212 7.979 5.804 10.052l31.921 18.43c3.591 2.073 8.016 2.073 11.608 0l31.921-18.43c3.591-2.073 5.804-5.905 5.804-10.052v-11.738c-13.735-4.343-28.357-6.692-43.529-6.692z" fill="#676f72"/></g><g><path d="m364.292 301.176-31.921-18.43c-3.591-2.073-8.016-2.073-11.608 0l-31.921 18.43c-3.591 2.073-5.804 5.905-5.804 10.052v11.738c13.735 4.343 28.357 6.692 43.529 6.692s29.793-2.349 43.529-6.692v-11.738c0-4.147-2.212-7.979-5.804-10.052z" fill="#4c5659"/></g><g><path d="m185.707 154.37 10.154 5.862c3.591 2.073 8.016 2.073 11.608 0l31.921-18.43c3.591-2.073 5.804-5.905 5.804-10.053v-36.859c0-4.147-2.212-7.979-5.804-10.052l-10.133-5.85c-21.535 19.698-37.066 45.844-43.55 75.382z" fill="#676f72"/></g><g><path d="m457.274 210.634c-3.591-2.073-8.016-2.073-11.608 0l-31.921 18.43c-3.591 2.073-5.804 5.905-5.804 10.052v36.859c0 4.147 2.212 7.979 5.804 10.052l10.133 5.85c21.535-19.698 37.066-45.844 43.55-75.382z" fill="#676f72"/></g><g><path d="m239.389 229.063-31.921-18.43c-3.591-2.073-8.016-2.073-11.608 0l-10.154 5.862c6.484 29.538 22.015 55.684 43.55 75.382l10.133-5.85c3.591-2.073 5.804-5.905 5.804-10.052v-36.859c0-4.147-2.212-7.979-5.804-10.053z" fill="#4c5659"/></g><g><path d="m423.878 78.988-10.133 5.85c-3.591 2.073-5.804 5.905-5.804 10.052v36.859c0 4.147 2.212 7.979 5.804 10.053l31.921 18.43c3.591 2.073 8.016 2.073 11.608 0l10.154-5.862c-6.485-29.538-22.015-55.684-43.55-75.382z" fill="#676f72"/></g><g><path d="m408.562 279.72c.894 2.622 2.712 4.881 5.183 6.308l10.133 5.85c9.503-8.693 17.835-18.643 24.739-29.585-12.234 7.72-25.706 13.651-40.055 17.427z" fill="#4c5659"/></g><g><path d="m227.535 140.24c0-19.778 3.985-38.625 11.19-55.786l-9.468-5.466c-21.535 19.698-37.066 45.844-43.55 75.382l10.154 5.862c3.591 2.073 8.016 2.073 11.608 0l20.308-11.725c-.156-2.736-.242-5.492-.242-8.267z" fill="#4c5659"/></g></g></svg>