<?xml version="1.0" encoding="iso-8859-1"?>
<!-- Generator: Adobe Illustrator 19.0.0, SVG Export Plug-In . SVG Version: 6.00 Build 0)  -->
<svg version="1.1" id="Capa_1" xmlns="http://www.w3.org/2000/svg" xmlns:xlink="http://www.w3.org/1999/xlink" x="0px" y="0px"
	 viewBox="0 0 512 512" style="enable-background:new 0 0 512 512;" xml:space="preserve">
<circle style="fill:#93D632;" cx="256" cy="256" r="256"/>
<path style="fill:#86C42B;" d="M512,256c0-10.803-0.677-21.447-1.976-31.898l-80.942-80.941l-59.409,87.65L238.407,99.544
	l-13.7,60.644l-32.015-32.015l11.009,52.567l96.217,96.217l-81.677,8.058l-99.427-99.428L43.527,302.252l28.219,28.219
	l-16.941,0.837l179.794,179.794C241.657,511.687,248.792,512,256,512C397.385,512,512,397.385,512,256z"/>
<path style="fill:#595959;" d="M354.68,332.393L208.376,219.929l0,0c-5.971,15.572-23.435,23.355-39.006,17.384l-33.171-12.719
	c-15.572-5.971-23.355-23.435-17.384-39.006l0,0l-26.517,22.43c-26.058,22.042-41.177,54.375-41.385,88.505l0,0l315.123,120.831
	l7.253-18.916C382.379,374.73,374.81,347.867,354.68,332.393z"/>
<path style="fill:#474747;" d="M354.679,332.393l-104.23-80.122l-48.822,102.042l164.408,63.041l7.253-18.917
	C382.379,374.73,374.81,347.867,354.679,332.393z"/>
<g>
	
		<rect x="314.555" y="398.892" transform="matrix(-0.9337 -0.358 0.358 -0.9337 489.2231 925.0673)" style="fill:#6E6E6E;" width="31.38" height="36.709"/>
	
		<rect x="259.542" y="377.807" transform="matrix(-0.9337 -0.358 0.358 -0.9337 390.3929 864.5993)" style="fill:#6E6E6E;" width="31.38" height="36.709"/>
	
		<rect x="199.39" y="354.739" transform="matrix(-0.9337 -0.358 0.358 -0.9337 282.3336 798.4578)" style="fill:#6E6E6E;" width="31.38" height="36.709"/>
</g>
<rect x="60.346" y="301.428" transform="matrix(-0.9337 -0.358 0.358 -0.9337 32.5492 645.5905)" style="fill:#848484;" width="31.38" height="36.709"/>
<path style="fill:#636978;" d="M184.02,239.074l108.032,83.937c12.061,9.371,28.116,11.826,42.427,6.486l11.063-4.128
	l-137.166-105.44C204.259,230.667,194.677,237.698,184.02,239.074z"/>
<path style="fill:#555A66;" d="M250.449,252.271l-13.399,28.005l55.002,42.734c12.061,9.371,28.116,11.826,42.427,6.486
	l11.063-4.128L250.449,252.271z"/>
<path style="fill:#636978;" d="M121.629,283.264c11.093-28.93-3.367-61.375-32.297-72.468c-0.045-0.017-0.09-0.031-0.135-0.048
	c-24.149,21.936-38.085,53.025-38.285,85.775l0,0l43.63,16.729C106.552,307.191,116.433,296.815,121.629,283.264z"/>
<rect x="36.546" y="339.928" transform="matrix(0.9337 0.358 -0.358 0.9337 139.8359 -51.0223)" style="fill:#474747;" width="342.333" height="24.424"/>
<polygon style="fill:#383838;" points="371.918,402.013 208.741,339.444 198.166,361.547 363.174,424.818 "/>
<circle style="fill:#FFFFFF;" cx="349.51" cy="214.63" r="106.96"/>
<path style="fill:#F0F0F0;" d="M415.019,130.081L284.47,299.54c18.024,13.828,40.572,22.053,65.044,22.053
	c59.072,0,106.959-47.887,106.959-106.959C456.473,180.243,440.239,149.647,415.019,130.081z"/>
<polygon style="fill:#555A66;" points="349.514,170.572 308.212,200.579 323.988,249.133 375.04,249.133 390.816,200.579 "/>
<polygon style="fill:#414952;" points="323.785,248.507 323.988,249.133 375.04,249.133 390.816,200.58 371.513,186.555 "/>
<path style="fill:#555A66;" d="M310.681,114.947l38.833,28.214l38.833-28.214c-12.038-4.693-25.134-7.272-38.833-7.272
	S322.719,110.254,310.681,114.947z"/>
<g>
	<path style="fill:#414952;" d="M417.116,191.714l39.214,28.491c0.095-1.845,0.143-3.702,0.143-5.571
		c0-25.954-9.247-49.747-24.622-68.27L417.116,191.714z"/>
	<path style="fill:#414952;" d="M376.637,318.119c26.387-6.897,48.801-23.616,63.101-46.02H391.59L376.637,318.119z"/>
</g>
<g>
	<path style="fill:#555A66;" d="M267.177,146.364c-15.375,18.523-24.622,42.316-24.622,68.27c0,1.869,0.049,3.726,0.143,5.571
		l39.214-28.491L267.177,146.364z"/>
	<path style="fill:#555A66;" d="M307.438,272.099H259.29c14.299,22.404,36.714,39.123,63.101,46.02L307.438,272.099z"/>
</g>
<path style="fill:#414952;" d="M307.438,272.099h-1.828l-21.142,27.443c11.121,8.532,23.966,14.929,37.923,18.578L307.438,272.099z"
	/>
<g>
	
		<rect x="199.423" y="120.818" transform="matrix(-0.1266 -0.992 0.992 -0.1266 129.0005 378.2161)" style="fill:#FFF573;" width="63.167" height="22.999"/>
	
		<rect x="173.925" y="142.959" transform="matrix(-0.6044 -0.7967 0.7967 -0.6044 194.9216 405.71)" style="fill:#FFF573;" width="48.535" height="23"/>
</g>
<g>
	
		<rect x="407.455" y="322.844" transform="matrix(-0.9705 -0.2412 0.2412 -0.9705 771.2601 763.0944)" style="fill:#FFEB50;" width="49.755" height="23.001"/>
	
		<rect x="384.152" y="354.641" transform="matrix(-0.6102 -0.7923 0.7923 -0.6102 367.1716 912.9451)" style="fill:#FFEB50;" width="48.072" height="23.001"/>
</g>
<g>
</g>
<g>
</g>
<g>
</g>
<g>
</g>
<g>
</g>
<g>
</g>
<g>
</g>
<g>
</g>
<g>
</g>
<g>
</g>
<g>
</g>
<g>
</g>
<g>
</g>
<g>
</g>
<g>
</g>
</svg>
